<?xml version="1.0" encoding="utf-8"?>
<!-- Generator: Adobe Illustrator 26.5.0, SVG Export Plug-In . SVG Version: 6.00 Build 0)  -->
<svg version="1.1" id="Layer_1" xmlns="http://www.w3.org/2000/svg" xmlns:xlink="http://www.w3.org/1999/xlink" x="0px" y="0px"
	 viewBox="0 0 1366 768" style="enable-background:new 0 0 1366 768;" xml:space="preserve">
<style type="text/css">
	.st0{display:none;fill:#FAFAFA;}
	.st1{opacity:0.9;}
	.st2{fill:#FFFFFF;}
	.st3{fill:#7843E4;}
	.st4{opacity:0.9;fill:#FAFAFA;}
	.st5{fill:#AE8FEF;}
	.st6{opacity:0.3;fill:#AE8FEF;enable-background:new    ;}
	.st7{fill:#FAFAFA;}
	.st8{fill:#F5F5F5;}
	.st9{fill:#BFF3C8;}
	.st10{fill:none;}
	.st11{font-family:'Noteworthy-Bold';}
	.st12{font-size:18px;}
	.st13{opacity:0.9;fill:#F2ECFC;enable-background:new    ;}
	.st14{fill:none;stroke:#7843E4;stroke-width:2;stroke-linecap:round;stroke-miterlimit:10;}
</style>
<rect class="st0" width="1366" height="768"/>
<g class="st1">
	<g>
		<path class="st2" d="M1107,666H258c-5.5,0-10-4.5-10-10V113c0-5.5,4.5-10,10-10h849c5.5,0,10,4.5,10,10v543
			C1117,661.5,1112.5,666,1107,666z"/>
	</g>
</g>
<path class="st3" d="M1117,164H248v-51c0-5.5,4.5-10,10-10h849c5.5,0,10,4.5,10,10V164z"/>
<path class="st4" d="M1080,642H897c-6.6,0-12-5.4-12-12V201c0-6.6,5.4-12,12-12h183c6.6,0,12,5.4,12,12v429
	C1092,636.6,1086.6,642,1080,642z"/>
<circle class="st5" cx="278.5" cy="133" r="6.5"/>
<circle class="st6" cx="298" cy="133" r="6.5"/>
<circle class="st6" cx="317.5" cy="133" r="6.5"/>
<path class="st7" d="M853,307H282c-5.5,0-10-4.5-10-10v-98c0-5.5,4.5-10,10-10h571c5.5,0,10,4.5,10,10v98
	C863,302.5,858.5,307,853,307z"/>
<path class="st8" d="M837,258H298c-1.6,0-3,1.4-3,3v10c0,1.6,1.4,3,3,3h539c1.7,0,3-1.4,3-3v-10C840,259.4,838.7,258,837,258z"/>
<path class="st9" d="M564,222H298c-1.6,0-3,1.4-3,3v10c0,1.6,1.4,3,3,3h266c1.7,0,3-1.4,3-3v-10C567,223.4,565.7,222,564,222z"/>
<path class="st4" d="M853,448H282c-5.5,0-10-4.5-10-10v-98c0-5.5,4.5-10,10-10h571c5.5,0,10,4.5,10,10v98
	C863,443.5,858.5,448,853,448z"/>
<path class="st8" d="M837,399H298c-1.6,0-3,1.4-3,3v10c0,1.6,1.4,3,3,3h539c1.7,0,3-1.4,3-3v-10C840,400.4,838.7,399,837,399z"/>
<path class="st8" d="M564,363H298c-1.6,0-3,1.4-3,3v10c0,1.6,1.4,3,3,3h266c1.7,0,3-1.4,3-3v-10C567,364.4,565.7,363,564,363z"/>
<path class="st7" d="M849,589H278c-5.5,0-10-4.5-10-10v-98c0-5.5,4.5-10,10-10h571c5.5,0,10,4.5,10,10v98
	C859,584.5,854.5,589,849,589z"/>
<path class="st8" d="M833,540H294c-1.6,0-3,1.3-3,3v10c0,1.7,1.4,3,3,3h539c1.7,0,3-1.3,3-3v-10C836,541.3,834.7,540,833,540z"/>
<path class="st8" d="M560,504H294c-1.6,0-3,1.4-3,3v10c0,1.7,1.4,3,3,3h266c1.7,0,3-1.3,3-3v-10C563,505.4,561.7,504,560,504z"/>
<g>
	<g>
		<path class="st2" d="M91.6,212.5c14.1-18,32.3-35.7,55.7-39.9c7-1.3,14.2-1.2,21.1,0c6.3,1.1,12.8,3,17.9,7.1
			c8.9,7.1,12.1,19,13.5,29.8c0.9,6.8,1.3,13.8,0.9,20.7c-0.3,6.1-0.9,12.8-3.6,18.4c-2.5,5.1-7,8.5-12.8,8.2
			c-5.6-0.3-10.8-3.5-14.4-7.6c-4.1-4.8-6.3-10.9-5.9-17.2c0.4-6,3-11.9,6.8-16.6c7.6-9.3,19.7-14.1,31.2-16.2
			c22.1-4.1,46,1.9,63.5,15.9c2.2,1.7,4.2,3.6,6.2,5.6c0.7,0.7,1.7-0.4,1.1-1.1c-16.7-16.7-41.1-25.1-64.6-22.8
			c-12,1.2-24.6,5-33.9,12.9c-9.4,7.9-14.9,21.2-10,33.1c2.3,5.5,6.4,10.3,11.7,13.1c4.7,2.5,10.6,3.4,15.5,0.9
			c5.1-2.5,7.7-8,9-13.3c1.7-6.8,2-14.1,1.8-21.2c-0.2-6.7-0.8-13.4-2.2-19.9c-1.2-5.7-3-11.4-6.1-16.3c-3.2-5.1-7.7-9.1-13.3-11.6
			c-6.3-2.8-13.4-4.1-20.2-4.4c-12.9-0.6-25.4,3.2-36.4,9.8c-10.6,6.4-19.7,15-27.7,24.4c-2,2.3-3.9,4.7-5.8,7
			C89.9,212.2,91,213.3,91.6,212.5L91.6,212.5z"/>
	</g>
</g>
<rect x="20.1" y="226.9" class="st10" width="106.9" height="78.8"/>
<text transform="matrix(1 0 0 1 29.334 242.0688)" class="st2 st11 st12">Your site at </text>
<text transform="matrix(1 0 0 1 36.934 263.6688)" class="st2 st11 st12">the top #1</text>
<rect x="1156.1" y="355.9" class="st10" width="133.9" height="78.8"/>
<text transform="matrix(1 0 0 1 1161.5762 371.0688)" class="st2 st11 st12">Fastest support</text>
<path class="st13" d="M796.9,150h291.2c2.7,0,4.9-2.2,4.9-4.9v-24.2c0-2.7-2.2-4.9-4.9-4.9H796.9c-2.7,0-4.9,2.2-4.9,4.9v24.2
	C792,147.8,794.2,150,796.9,150z"/>
<g>
	<g>
		<path class="st2" d="M271.5,210c0.3,3.9,0.5,7.7,0.8,11.6c0.2-0.2,0.5-0.5,0.8-0.8c-3,0.1-6,0.1-9,0.2c-1,0-1,1.5,0,1.5
			c3-0.1,6-0.1,9-0.2c0.4,0,0.8-0.3,0.8-0.8c-0.3-3.9-0.5-7.7-0.8-11.6C272.9,209,271.4,209,271.5,210L271.5,210z"/>
	</g>
</g>
<path class="st3" d="M1079.8,139.4l-3.5-3.5c2-2.5,1.7-6.2-0.8-8.2s-6.2-1.7-8.2,0.8s-1.7,6.2,0.8,8.2c2.1,1.8,5.2,1.8,7.4,0
	l3.5,3.5c0.2,0.2,0.6,0.2,0.8,0C1080.1,140,1080.1,139.6,1079.8,139.4z M1071.8,136.9c-2.6,0-4.7-2.1-4.7-4.7c0-2.6,2.1-4.7,4.7-4.7
	s4.7,2.1,4.7,4.7C1076.5,134.8,1074.4,136.9,1071.8,136.9z"/>
<g>
	<path class="st2" d="M360.3,140.1l-0.1-1.2c0.3,0.1,0.5,0.1,0.8,0.1s0.5,0,0.7-0.1s0.3-0.2,0.4-0.4c0.1-0.1,0.2-0.5,0.4-1
		c0-0.1,0.1-0.2,0.1-0.3l-2.9-7.8h1.4l1.6,4.5c0.2,0.6,0.4,1.2,0.6,1.8c0.2-0.6,0.3-1.2,0.5-1.8l1.7-4.5h1.3l-3,7.9
		c-0.3,0.9-0.6,1.4-0.7,1.8c-0.2,0.4-0.5,0.8-0.8,1s-0.7,0.3-1.1,0.3C360.9,140.2,360.6,140.2,360.3,140.1z"/>
	<path class="st2" d="M367.4,133.2c0-1.4,0.4-2.5,1.2-3.2c0.7-0.6,1.5-0.9,2.4-0.9c1.1,0,1.9,0.4,2.6,1.1c0.7,0.7,1,1.7,1,2.9
		c0,1-0.2,1.8-0.5,2.4c-0.3,0.6-0.7,1-1.3,1.3s-1.2,0.5-1.9,0.5c-1.1,0-2-0.3-2.6-1S367.4,134.5,367.4,133.2z M368.7,133.2
		c0,1,0.2,1.7,0.7,2.2c0.4,0.5,1,0.7,1.6,0.7c0.7,0,1.2-0.2,1.6-0.7s0.7-1.3,0.7-2.3s-0.2-1.7-0.7-2.2s-1-0.7-1.6-0.7
		c-0.7,0-1.2,0.2-1.6,0.7C368.9,131.5,368.7,132.2,368.7,133.2z"/>
	<path class="st2" d="M381.3,137.1V136c-0.6,0.9-1.4,1.3-2.5,1.3c-0.5,0-0.9-0.1-1.3-0.3s-0.7-0.4-0.9-0.7s-0.3-0.6-0.4-1
		c-0.1-0.3-0.1-0.7-0.1-1.2v-4.8h1.3v4.3c0,0.7,0,1.2,0.1,1.4c0.1,0.3,0.3,0.6,0.5,0.8c0.3,0.2,0.6,0.3,1,0.3s0.8-0.1,1.1-0.3
		c0.3-0.2,0.6-0.5,0.7-0.8s0.2-0.9,0.2-1.5v-4.2h1.3v7.8H381.3z"/>
	<path class="st2" d="M384.5,137.1v-7.8h1.2v1.2c0.3-0.6,0.6-0.9,0.8-1.1s0.5-0.3,0.8-0.3c0.4,0,0.9,0.1,1.4,0.4l-0.5,1.2
		c-0.3-0.2-0.6-0.3-1-0.3c-0.3,0-0.5,0.1-0.8,0.3c-0.2,0.2-0.4,0.4-0.5,0.7c-0.1,0.5-0.2,1-0.2,1.5v4.1h-1.2L384.5,137.1
		L384.5,137.1z"/>
	<path class="st2" d="M389,134.8l1.3-0.2c0.1,0.5,0.3,0.9,0.6,1.2c0.3,0.3,0.8,0.4,1.4,0.4s1.1-0.1,1.3-0.4c0.3-0.2,0.4-0.5,0.4-0.9
		c0-0.3-0.1-0.5-0.4-0.7c-0.2-0.1-0.6-0.3-1.3-0.4c-1-0.2-1.6-0.5-2-0.6c-0.4-0.2-0.7-0.4-0.8-0.7s-0.3-0.7-0.3-1s0.1-0.7,0.2-1
		c0.2-0.3,0.4-0.5,0.6-0.7s0.5-0.3,0.8-0.4c0.4-0.1,0.7-0.2,1.1-0.2c0.6,0,1.1,0.1,1.6,0.3s0.8,0.4,1,0.7s0.4,0.7,0.5,1.2l-1.3,0.2
		c-0.1-0.4-0.2-0.7-0.5-0.9s-0.7-0.3-1.2-0.3c-0.6,0-1,0.1-1.3,0.3s-0.4,0.4-0.4,0.7c0,0.2,0.1,0.3,0.2,0.5c0.1,0.1,0.3,0.3,0.5,0.4
		c0.1,0,0.5,0.2,1.2,0.3c0.9,0.2,1.6,0.5,2,0.6c0.4,0.2,0.7,0.4,0.9,0.7c0.2,0.3,0.3,0.7,0.3,1.1c0,0.4-0.1,0.9-0.4,1.2
		c-0.3,0.4-0.6,0.7-1.1,0.9s-1,0.3-1.6,0.3c-1,0-1.8-0.2-2.3-0.6C389.5,136.2,389.1,135.6,389,134.8z"/>
	<path class="st2" d="M402.3,134.6l1.4,0.2c-0.2,0.8-0.6,1.4-1.2,1.9c-0.6,0.4-1.3,0.7-2.2,0.7c-1.1,0-2-0.4-2.7-1.1
		c-0.7-0.7-1-1.7-1-2.9c0-1.3,0.3-2.3,1-3s1.5-1.1,2.6-1.1c1,0,1.9,0.4,2.5,1.1c0.7,0.7,1,1.7,1,3c0,0.1,0,0.2,0,0.4h-5.8
		c0,0.9,0.3,1.5,0.7,2c0.4,0.5,1,0.7,1.6,0.7c0.5,0,0.9-0.1,1.2-0.4C401.8,135.5,402.1,135.1,402.3,134.6z M398,132.4h4.3
		c-0.1-0.7-0.2-1.1-0.5-1.5c-0.4-0.5-1-0.8-1.6-0.8s-1.1,0.2-1.5,0.6C398.3,131.2,398,131.8,398,132.4z"/>
	<path class="st2" d="M410.4,136.1c-0.5,0.4-1,0.7-1.4,0.9s-0.9,0.3-1.5,0.3c-0.9,0-1.5-0.2-2-0.6c-0.5-0.4-0.7-1-0.7-1.6
		c0-0.4,0.1-0.7,0.3-1c0.2-0.3,0.4-0.6,0.7-0.8c0.3-0.2,0.6-0.3,0.9-0.4c0.3-0.1,0.6-0.1,1.2-0.2c1.1-0.1,1.8-0.3,2.3-0.5
		c0-0.2,0-0.3,0-0.3c0-0.5-0.1-0.9-0.4-1.1c-0.3-0.3-0.8-0.4-1.5-0.4c-0.6,0-1.1,0.1-1.4,0.3s-0.5,0.6-0.7,1.2l-1.3-0.2
		c0.1-0.6,0.3-1,0.6-1.3c0.3-0.3,0.7-0.6,1.2-0.8s1.1-0.3,1.8-0.3c0.7,0,1.2,0.1,1.6,0.2s0.7,0.4,0.9,0.6s0.3,0.5,0.4,0.9
		c0,0.2,0.1,0.6,0.1,1.2v1.8c0,1.2,0,2,0.1,2.3s0.2,0.6,0.3,0.9h-1.4C410.5,136.8,410.4,136.5,410.4,136.1z M410.3,133.2
		c-0.5,0.2-1.2,0.4-2.2,0.5c-0.5,0.1-0.9,0.2-1.1,0.3s-0.4,0.2-0.5,0.4s-0.2,0.4-0.2,0.6c0,0.4,0.1,0.6,0.4,0.9
		c0.3,0.2,0.7,0.4,1.2,0.4s1-0.1,1.4-0.3s0.7-0.5,0.9-0.9c0.1-0.3,0.2-0.7,0.2-1.3L410.3,133.2L410.3,133.2z"/>
	<path class="st2" d="M413.6,137.1v-7.8h1.2v1.2c0.3-0.6,0.6-0.9,0.8-1.1s0.5-0.3,0.8-0.3c0.4,0,0.9,0.1,1.4,0.4l-0.5,1.2
		c-0.3-0.2-0.6-0.3-1-0.3c-0.3,0-0.5,0.1-0.8,0.3c-0.2,0.2-0.4,0.4-0.5,0.7c-0.1,0.5-0.2,1-0.2,1.5v4.1h-1.2L413.6,137.1
		L413.6,137.1z"/>
	<path class="st2" d="M423.7,134.2l1.3,0.2c-0.1,0.9-0.5,1.6-1.1,2.1s-1.3,0.8-2.1,0.8c-1.1,0-1.9-0.3-2.6-1c-0.6-0.7-1-1.7-1-3
		c0-0.8,0.1-1.6,0.4-2.2c0.3-0.6,0.7-1.1,1.3-1.4s1.2-0.5,1.9-0.5c0.8,0,1.5,0.2,2.1,0.6s0.9,1,1,1.8l-1.3,0.2
		c-0.1-0.5-0.3-0.9-0.6-1.2c-0.3-0.3-0.7-0.4-1.1-0.4c-0.7,0-1.2,0.2-1.6,0.7s-0.6,1.2-0.6,2.3c0,1,0.2,1.8,0.6,2.3s0.9,0.7,1.6,0.7
		c0.5,0,0.9-0.2,1.3-0.5S423.6,134.9,423.7,134.2z"/>
	<path class="st2" d="M426.1,137.1v-10.7h1.3v3.8c0.6-0.7,1.4-1.1,2.3-1.1c0.6,0,1.1,0.1,1.5,0.3s0.7,0.5,0.9,0.9
		c0.2,0.4,0.3,1,0.3,1.7v4.9h-1.3V132c0-0.7-0.1-1.1-0.4-1.4s-0.7-0.5-1.2-0.5c-0.4,0-0.8,0.1-1.1,0.3c-0.3,0.2-0.6,0.5-0.7,0.8
		s-0.2,0.8-0.2,1.4v4.3h-1.4L426.1,137.1L426.1,137.1z"/>
	<path class="st2" d="M434.9,137.1v-1.5h1.5v1.5H434.9z"/>
	<path class="st2" d="M443.7,134.2l1.3,0.2c-0.1,0.9-0.5,1.6-1.1,2.1s-1.3,0.8-2.1,0.8c-1.1,0-1.9-0.3-2.6-1c-0.6-0.7-1-1.7-1-3
		c0-0.8,0.1-1.6,0.4-2.2c0.3-0.6,0.7-1.1,1.3-1.4s1.2-0.5,1.9-0.5c0.8,0,1.5,0.2,2.1,0.6c0.5,0.4,0.9,1,1,1.8l-1.3,0.2
		c-0.1-0.5-0.3-0.9-0.6-1.2c-0.3-0.3-0.7-0.4-1.1-0.4c-0.7,0-1.2,0.2-1.6,0.7s-0.6,1.2-0.6,2.3c0,1,0.2,1.8,0.6,2.3s0.9,0.7,1.6,0.7
		c0.5,0,0.9-0.2,1.3-0.5C443.4,135.4,443.6,134.9,443.7,134.2z"/>
	<path class="st2" d="M445.6,133.2c0-1.4,0.4-2.5,1.2-3.2c0.7-0.6,1.5-0.9,2.4-0.9c1.1,0,1.9,0.4,2.6,1.1c0.7,0.7,1,1.7,1,2.9
		c0,1-0.1,1.8-0.4,2.4c-0.3,0.6-0.7,1-1.3,1.3s-1.2,0.5-1.9,0.5c-1.1,0-2-0.3-2.6-1C446,135.5,445.6,134.5,445.6,133.2z M447,133.2
		c0,1,0.2,1.7,0.7,2.2c0.4,0.5,1,0.7,1.6,0.7c0.7,0,1.2-0.2,1.6-0.7s0.7-1.3,0.7-2.3s-0.2-1.7-0.7-2.2c-0.4-0.5-1-0.7-1.6-0.7
		c-0.7,0-1.2,0.2-1.6,0.7C447.2,131.5,447,132.2,447,133.2z"/>
	<path class="st2" d="M454.5,137.1v-7.8h1.2v1.1c0.2-0.4,0.6-0.7,1-0.9s0.9-0.3,1.4-0.3c0.6,0,1,0.1,1.4,0.4c0.4,0.2,0.6,0.6,0.8,1
		c0.6-0.9,1.4-1.4,2.4-1.4c0.8,0,1.4,0.2,1.8,0.6s0.6,1.1,0.6,2v5.3h-1.3v-4.9c0-0.5,0-0.9-0.1-1.1c-0.1-0.2-0.2-0.4-0.5-0.6
		s-0.5-0.2-0.8-0.2c-0.5,0-1,0.2-1.4,0.5c-0.4,0.4-0.5,0.9-0.5,1.7v4.5h-1.3v-5c0-0.6-0.1-1-0.3-1.3s-0.6-0.4-1.1-0.4
		c-0.4,0-0.7,0.1-1,0.3s-0.5,0.5-0.7,0.9c-0.1,0.4-0.2,0.9-0.2,1.6v4L454.5,137.1L454.5,137.1z"/>
</g>
<g>
	<g>
		<path class="st2" d="M1312,478h-254c-6.6,0-12-5.4-12-12v-65c0-6.6,5.4-12,12-12h254c6.6,0,12,5.4,12,12v65
			C1324,472.6,1318.6,478,1312,478z"/>
	</g>
</g>
<circle class="st3" cx="1090" cy="434" r="22"/>
<path class="st7" d="M1294.5,428h-162c-3,0-5.5-2.5-5.5-5.5l0,0c0-3,2.5-5.5,5.5-5.5h162c3,0,5.5,2.5,5.5,5.5l0,0
	C1300,425.5,1297.5,428,1294.5,428z"/>
<path class="st7" d="M1243.5,450h-110c-3,0-5.5-2.5-5.5-5.5l0,0c0-3,2.5-5.5,5.5-5.5h110c3,0,5.5,2.5,5.5,5.5l0,0
	C1249,447.5,1246.5,450,1243.5,450z"/>
<g>
	<g>
		<path class="st2" d="M1141.3,613.2c4.3,1.4,8.7-0.8,12-3.4c3.7-2.9,6.1-6.6,7.8-10.9c4.4-10.5,5.8-22.6,2.9-33.7
			c-2.7-10.2-9.2-19-18.3-24.3c-4.3-2.4-9-4-13.9-4.5c-4.7-0.5-11.2-0.3-14.5,3.6c-2.8,3.4-2.2,8.4-0.7,12.3c1.7,4.3,4.7,8.1,8,11.3
			c6.7,6.5,15.4,10.8,24.5,12.6c9.3,1.8,19.3,1.2,28.1-2.5c6.9-2.9,12.9-8,17.5-13.8c6.5-8.2,10.2-18.4,12.4-28.5
			c2.5-11.1,3.2-22.6,2.4-34c-0.1-2-0.3-4.1-0.5-6.1c-0.1-0.9-1.6-1-1.5,0c1,9.5,1.2,19.1,0.1,28.6c-1.3,11.4-4.3,23-10,33.1
			c-2.9,5.2-6.9,9.8-11.5,13.6c-7.3,6.1-16.6,9-26,9.2c-8.9,0.2-17.8-2-25.5-6.4c-3.8-2.2-7.4-4.9-10.4-8.2s-5.8-7.1-6.9-11.5
			c-0.5-2.1-0.7-4.4,0-6.4c0.8-2.5,2.9-4,5.3-4.7c4.7-1.3,10-0.9,14.7,0.5c9.2,2.7,17.2,9.3,21.8,17.8c5.2,9.6,6,21.2,3.7,31.8
			c-1.1,5.3-2.9,10.8-5.8,15.3c-2,3.1-5.3,5.8-8.7,7.4c-2.1,0.9-4.4,1.4-6.6,0.6C1140.8,611.5,1140.4,612.9,1141.3,613.2
			L1141.3,613.2z"/>
	</g>
</g>
<g>
	<g>
		<path class="st2" d="M1204.5,497c1.7-2.1,3.3-4.2,4.7-6.6c-0.4,0-0.9,0-1.3,0c1.4,2.1,3,4.2,4.7,6c0.7,0.7,1.7-0.4,1.1-1.1
			c-1.7-1.8-3.2-3.7-4.5-5.7c-0.3-0.5-1-0.5-1.3,0c-1.3,2.2-2.8,4.3-4.4,6.3C1202.8,496.7,1203.9,497.8,1204.5,497L1204.5,497z"/>
	</g>
</g>
<g>
	<g>
		<path class="st2" d="M395,608H84c-5.5,0-10-4.5-10-10V488c0-5.5,4.5-10,10-10h311c5.5,0,10,4.5,10,10v110
			C405,603.5,400.5,608,395,608z"/>
	</g>
</g>
<path class="st7" d="M197.3,592H93.7c-1.5,0-2.7-1.2-2.7-2.7v-92.6c0-1.5,1.2-2.7,2.7-2.7h103.6c1.5,0,2.7,1.2,2.7,2.7v92.6
	C200,590.8,198.8,592,197.3,592z"/>
<path class="st7" d="M378,532H221c-3.3,0-6-2.7-6-6l0,0c0-3.3,2.7-6,6-6h157c3.3,0,6,2.7,6,6l0,0C384,529.3,381.3,532,378,532z"/>
<path class="st7" d="M355,559H221c-3.3,0-6-2.7-6-6l0,0c0-3.3,2.7-6,6-6h134c3.3,0,6,2.7,6,6l0,0C361,556.3,358.3,559,355,559z"/>
<line class="st14" x1="1126" y1="84" x2="1142.5" y2="64.5"/>
<line class="st14" x1="1130.5" y1="88.5" x2="1143.5" y2="81.5"/>
<line class="st14" x1="1124.5" y1="70.5" x2="1120.5" y2="80.5"/>
<line class="st14" x1="66" y1="472" x2="54" y2="458"/>
<line class="st14" x1="72" y1="468" x2="70" y2="458"/>
<line class="st14" x1="62" y1="477" x2="51" y2="474"/>
</svg>
