<?xml version="1.0" encoding="utf-8"?>
<!-- Generator: Adobe Illustrator 26.5.0, SVG Export Plug-In . SVG Version: 6.00 Build 0)  -->
<svg version="1.1" id="Layer_1" xmlns="http://www.w3.org/2000/svg" xmlns:xlink="http://www.w3.org/1999/xlink" x="0px" y="0px"
	 viewBox="0 0 1000 1000" style="enable-background:new 0 0 1000 1000;" xml:space="preserve">
<style type="text/css">
	.st0{display:none;}
	.st1{display:inline;fill:#FAFAFA;}
	.st2{opacity:0.9;}
	.st3{fill:#FFFFFF;}
	.st4{fill:#7146DC;}
	.st5{fill:#FAFAFA;}
	.st6{fill:#AE8FEF;}
	.st7{opacity:0.3;fill:#AE8FEF;enable-background:new    ;}
	.st8{opacity:2.000000e-02;fill:none;stroke:#000000;stroke-width:2;stroke-miterlimit:10;enable-background:new    ;}
	.st9{fill:none;stroke:#BFF3C8;stroke-width:2;stroke-miterlimit:10;}
	.st10{opacity:0.2;fill:none;stroke:#999999;stroke-width:2;stroke-miterlimit:10;enable-background:new    ;}
	.st11{fill:#BFF3C8;}
	.st12{opacity:0.2;fill:#999999;enable-background:new    ;}
	.st13{fill:#F5F5F5;}
	.st14{fill:none;}
	.st15{fill:#999999;}
	.st16{font-family:'Poppins-Medium';}
	.st17{font-size:12px;}
	.st18{fill:#69E37E;}
	.st19{font-family:'Poppins-SemiBold';}
	.st20{font-size:33.0312px;}
	.st21{fill:#CBBDF0;}
	.st22{fill:#A992E9;}
	.st23{fill:#AA91EA;}
</style>
<g class="st0">
	<rect class="st1" width="1000" height="1000"/>
</g>
<g class="st2">
	<path class="st3" d="M972.9,969.2H62.3c-7.3,0-13.2-5.9-13.2-13.2V45.4c0-7.3,5.9-13.2,13.2-13.2h910.6c7.3,0,13.2,5.9,13.2,13.2
		V956C986.1,963.2,980.1,969.2,972.9,969.2z"/>
</g>
<path class="st4" d="M986.1,114.8h-937V45.4c0-7.3,5.9-13.2,13.2-13.2h910.6c7.3,0,13.2,5.9,13.2,13.2V114.8z"/>
<path class="st5" d="M933.7,326.8H100.4c-5.5,0-10-4.5-10-10V181.5c0-5.5,4.5-10,10-10h833.3c5.5,0,10,4.5,10,10v135.3
	C943.7,322.3,939.2,326.8,933.7,326.8z"/>
<path class="st5" d="M671.5,969.2H86.3V855c0-5.5,4.5-10,10-10h565.2c5.5,0,10,4.5,10,10V969.2z"/>
<path class="st5" d="M943.7,969.2H715.1V855c0-5.5,4.5-10,10-10h208.5c5.5,0,10,4.5,10,10v114.2H943.7z"/>
<path class="st5" d="M933.7,802.4H100.4c-5.5,0-10-4.5-10-10v-413c0-5.5,4.5-10,10-10h833.3c5.5,0,10,4.5,10,10v413.1
	C943.7,797.9,939.2,802.4,933.7,802.4z"/>
<circle class="st6" cx="112.7" cy="76.3" r="11.8"/>
<circle class="st7" cx="148.1" cy="76.3" r="11.8"/>
<circle class="st7" cx="183.5" cy="76.3" r="11.8"/>
<line class="st8" x1="254.7" y1="200.3" x2="254.7" y2="295.4"/>
<line class="st8" x1="435" y1="200.3" x2="435" y2="295.4"/>
<line class="st8" x1="615.2" y1="200.3" x2="615.2" y2="295.4"/>
<line class="st8" x1="779.4" y1="200.3" x2="779.4" y2="295.4"/>
<path class="st9" d="M91.1,719.5c6-4.8,12.1-9.6,18.4-14.1s13-8.7,20-12.1c0.6-0.3,1.2-0.6,1.8-0.8c14.7-6.8,31.7-9.8,47.2-5.1
	c12.2,3.7,22.8,12.1,35.4,14.1c19.6,3,37.8-10.2,52.2-23.7c14.4-13.5,29.1-29.1,48.6-32.6c29.2-5.3,46,20.5,72.2,22.3
	c14.5,1,27.9-7.6,38.8-17.2c59.2-52.2,84.7-130.7,168-153.5c44.6-12.2,89.1,8.8,131.5-16.4c11.3-6.7,21.5-15.7,34-20.3
	c8.9-3.3,19.2-4,27.8,0.1"/>
<path class="st10" d="M90.4,735.9c34.7-3.8,69.7-4.2,104.5-1.7c17.4,1.2,34.8,3.1,52,5.8c13.3,2.1,27.3,6.6,40.5,1.8
	c12.2-4.4,19.9-15.8,31-22c23.8-13.2,53.5,2,80.5-1.5c24.4-3.2,43.2-18.1,69-15.3c12.2,1.3,24.6,5.3,36.5,2.6
	c12.5-2.8,22.1-12.3,32.3-20s23.5-14,35.4-9.4c13.1,5.1,19.9,21.9,33.7,24.1c15.1,2.5,26.7-13.7,41.6-16.9
	c15.9-3.5,31.4,8.4,47.7,8.4c31,0,51.2-37.2,68.8-57.6c14.2-16.6,28.6-33.1,44-48.6c7.1-7.1,14.7-14.2,24.1-18s21-3.4,28.5,3.3"/>
<g>
	<path class="st11" d="M918.2,410.8h-19.3c-1.4,0-2.1-1.6-1.3-2.7l9.6-12.5c0.7-0.9,2-0.9,2.6,0l9.6,12.5
		C920.3,409.2,919.6,410.8,918.2,410.8z"/>
	<path class="st11" d="M912.8,410.8v13.9c0,0.9-0.7,1.7-1.7,1.7h-5.3c-0.9,0-1.7-0.7-1.7-1.7v-13.9H912.8z"/>
</g>
<circle class="st11" cx="517.4" cy="544.5" r="4.5"/>
<circle class="st11" cx="319.2" cy="645" r="4.5"/>
<circle class="st11" cx="161.9" cy="684.8" r="4.5"/>
<circle class="st12" cx="336.8" cy="713.9" r="4.5"/>
<circle class="st11" cx="606.1" cy="493.2" r="4.5"/>
<circle class="st11" cx="769.1" cy="457.2" r="4.5"/>
<path class="st13" d="M478.8,918.8H129.5c-1.7,0-3,1.4-3,3v11.6c0,1.6,1.3,3,3,3h349.3c1.6,0,3-1.4,3-3v-11.6
	C481.8,920.1,480.4,918.8,478.8,918.8z"/>
<path class="st13" d="M919,932.5H741.6c-1.7,0-3,1.3-3,3v11.6c0,1.7,1.3,3,3,3H919c1.6,0,3-1.3,3-3v-11.6
	C922,933.8,920.6,932.5,919,932.5z"/>
<path class="st13" d="M633.6,881.5H129.5c-1.7,0-3,1.3-3,3v11.6c0,1.7,1.3,3,3,3h504.1c1.7,0,3-1.3,3-3v-11.6
	C636.6,882.8,635.3,881.5,633.6,881.5z"/>
<rect x="121.2" y="227.9" class="st14" width="80.3" height="11.4"/>
<text transform="matrix(1 0 0 1 121.2354 236.7989)" class="st15 st16 st17">Total Traffic</text>
<rect x="121.2" y="258.7" class="st14" width="108.2" height="28.6"/>
<text transform="matrix(1 0 0 1 121.2354 283.1842)" class="st18 st19 st20">254K</text>
<circle class="st21" cx="762.8" cy="890.3" r="24.2"/>
<circle class="st22" cx="787" cy="890.3" r="24.2"/>
<g>
	
		<image style="overflow:visible;opacity:0.1;enable-background:new    ;" width="397" height="189" xlink:href="E9F66D893365CBD.png"  transform="matrix(1 0 0 1 -32 407)">
	</image>
	<g>
		<path class="st3" d="M307.4,550.2H25.3c-6.6,0-12-5.4-12-12v-74c0-6.6,5.4-12,12-12h282.1c6.6,0,12,5.4,12,12v74
			C319.4,544.8,314,550.2,307.4,550.2z"/>
	</g>
</g>
<circle class="st23" cx="60.2" cy="500.7" r="27.4"/>
<path class="st13" d="M284.1,482.4h-175c-1.7,0-3,1.4-3,3v7.2c0,1.6,1.3,3,3,3h175c1.6,0,3-1.4,3-3v-7.2
	C287.1,483.7,285.7,482.4,284.1,482.4z"/>
<path class="st13" d="M231.5,509.3H109.1c-1.7,0-3,1.4-3,3v7.2c0,1.7,1.3,3,3,3h122.4c1.7,0,3-1.3,3-3v-7.2
	C234.5,510.7,233.2,509.3,231.5,509.3z"/>
</svg>
